<svg width="250" height="250" viewBox="0 0 250 250" fill="none" xmlns="http://www.w3.org/2000/svg">
<path d="M250 125C250 194.036 194.036 250 125 250C55.9644 250 0 194.036 0 125C0 55.9644 55.9644 0 125 0C194.036 0 250 55.9644 250 125Z" fill="#679D2C"/>
<path d="M123.61 54.167C154.293 54.167 179.166 79.0402 179.166 109.723C179.166 129.582 168.745 147.008 153.073 156.83C181.014 169.341 201.389 197.62 201.389 217.256C201.389 219.922 201.012 222.43 200.293 224.785C179.351 240.612 153.273 250 125 250C95.1718 250 67.7849 239.551 46.2969 222.115C45.9917 220.557 45.8331 218.938 45.833 217.256C45.833 197.824 66.793 169.929 94.7881 157.226C78.7607 147.48 68.0558 129.851 68.0557 109.723C68.0557 79.0404 92.9282 54.1674 123.61 54.167Z" fill="white"/>
</svg>
